# xmcd
#
# Track frame offsets: 
#        150
#        22603
#        39078
#        53831
#        70561
#        86055
#        98905
#        129399
#        142482
#        153087
#        167552
#        188087
#        204805
#        220987
#
# Disc length: 3170 seconds
#
# Revision: 2
# Processed by: cddbd v1.5.2PL0 Copyright (c) Steve Scherf et al.
# Submitted via: ExactAudioCopy v0.99pb5
#
DISCID=af0c600e
DTITLE=America - Ventura Highway
DYEAR=2002
DGENRE=Rock
TTITLE0=Sandman
TTITLE1=Ventura Highway
TTITLE2=California Dreaming
TTITLE3=Old Man Took
TTITLE4=Tin Man
TTITLE5=Daisy Jane
TTITLE6=Here
TTITLE7=Love On The Vine
TTITLE8=I Need You
TTITLE9=Sister Golden Hair
TTITLE10=Inspector Mills
TTITLE11=You Can Do Magic
TTITLE12=Horse With No Name
TTITLE13=Never Be Lonely
EXTD=Label: Disky Communications Europe B.V.\nSI 794112
EXTT0=
EXTT1=
EXTT2=
EXTT3=
EXTT4=
EXTT5=
EXTT6=
EXTT7=
EXTT8=
EXTT9=
EXTT10=
EXTT11=
EXTT12=
EXTT13=
PLAYORDER=
